# xmcd
#
# Track frame offsets:
#  150
#  23852
#  43329
#  62119
#  78896
#  99235
#  119587
#  138189
#  154129
#  169081
#  189100
#  207247
#  217099
#  233508
#  249268
#  268527
#  284261
#  303357
#
# Disc length: 4273 seconds
#
# Revision: 0
# Processed by: cddbd v1.4PL0 Copyright (c) Steve Scherf et al.
# Submitted via: AltoMP3_Maker 3.0
#
DISCID=f310af12
DTITLE=邓丽君 - 忘不了
DYEAR=1900
DGENRE=
TTITLE0=不了情
TTITLE1=人面桃花
TTITLE2=恨不相逢未嫁时
TTITLE3=莫忘今宵
TTITLE4=ABRAHAM，MARTIN  AND  JOHN
TTITLE5=SMOKE  GETS IN  YOUR  EYES
TTITLE6=WAHT  A  WONDERFUL  WORLD
TTITLE7=LET  IT  BE  ME
TTITLE8=HEAVEN  HELP  MY  HEART
TTITLE9=小窗相思
TTITLE10=恨不相逢未嫁时
TTITLE11=三年
TTITLE12=谢谢你常记得我
TTITLE13=甜蜜蜜
TTITLE14=我只在乎你
TTITLE15=月亮代表我的心
TTITLE16=酒醉的探戈
TTITLE17=北国之春
EXTD=
EXTT0=
EXTT1=
EXTT2=
EXTT3=
EXTT4=
EXTT5=
EXTT6=
EXTT7=
EXTT8=
EXTT9=
EXTT10=
EXTT11=
EXTT12=
EXTT13=
EXTT14=
EXTT15=
EXTT16=
EXTT17=
PLAYORDER=
